<svg version="1.1" xmlns="http://www.w3.org/2000/svg" xmlns:xlink="http://www.w3.org/1999/xlink" width="511.69539" height="395" viewBox="0,0,511.69539,395"><g transform="translate(18.5,19)"><g data-paper-data="{&quot;isPaintingLayer&quot;:true}" fill="#ff0000" fill-rule="nonzero" stroke-width="0" stroke-linecap="butt" stroke-linejoin="miter" stroke-miterlimit="10" stroke-dasharray="" stroke-dashoffset="0" style="mix-blend-mode: normal"><path d="M-6.5,376v-40h315.80326c0.27778,0.41459 0.55779,0.8332 0.84011,1.25678c0.80106,1.20184 1.02996,2.76675 1.98136,3.85347c4.17661,4.77068 8.90095,5.47353 14.44311,7.76916c4.56783,1.89206 8.11021,4.41448 12.83119,5.95185c2.93076,0.95439 5.23356,4.17447 8.43826,4.97564c5.28358,1.32089 7.95306,1.23224 13.23289,1.58359c4.51639,0.30055 9.3622,1.95374 13.84681,1.95374c5.4641,0 11.46167,0 16.92577,0c3.79206,0 7.38974,-1.70001 10.71099,-3.25918c1.89439,-0.88932 13.08298,-3.26614 14.56812,-3.76119c5.6513,-1.88377 14.45213,-8.42821 19.27551,-11.97316c3.63654,-2.67267 7.7108,-5.16703 10.89523,-8.35072h44.20738v40z" stroke="none"/><path d="M454.5,365v-35.86664c3.66064,-3.0682 7.65474,-7.18434 8.57384,-11.32033c1.04655,-4.70947 2.85846,-8.63568 -0.23753,-13.27967c-1.38105,-2.07158 -3.17734,-3.81018 -5.21002,-5.10872c0.08155,-3.85349 -1.07433,-8.04207 -3.1263,-11.62747v-302.79717h35v380z" stroke="none"/><path d="M-6.5,28v-40h474v40z" stroke="none"/><path d="M-18.5,359v-378h36v378z" stroke="none"/><path d="M76.5,233v-124h48v124z" stroke="none"/><path d="M277.74007,86.95323l5.89273,-23.26533l122.14301,30.93683l-5.89273,23.26533z" stroke="none"/><path d="M315.70956,158.25933l15.89463,-67.14433l28.22008,6.68035l-15.89463,67.14433z" stroke="none"/><path d="M344.26107,277.95932l-34.04212,-31.54371l148.93432,-45.06246l34.04212,31.54373z" stroke="none"/><path d="M1.19443,343.65623l16,-79c0,0 2.63872,28.23376 19,49c16.36128,20.76624 63,27 63,27z" stroke="none"/><path d="M145.19443,337.65623c0,0 61.4867,-7.70828 82,-19c20.5133,-11.29172 51,-48 51,-48l-6,84z" stroke="none"/><path d="M269.19443,336.65623l9,-63c0,0 1.79079,7.27893 8.98158,17.25783c-0.58054,1.85671 -0.85242,3.64856 -0.74203,5.1572c0.5508,7.5276 9.81714,17.73243 13.25638,24.37764c3.05011,5.89334 6.24646,10.52204 9.8092,15.84423z" stroke="none"/><path d="M468.19443,258.65623l-5,83l-22.33266,-0.46526c2.38499,-1.68581 4.73389,-3.43823 6.71184,-5.47611c1.12417,-1.15824 1.86899,-2.70637 3.17257,-3.65819c4.03773,-2.94817 11.06847,-8.57728 12.32766,-14.24363c1.04655,-4.70947 2.85846,-8.63568 -0.23753,-13.27967c-1.38105,-2.07158 -3.17734,-3.81018 -5.21002,-5.10872c0.10288,-4.86163 -1.76382,-10.25663 -4.9147,-14.30084c8.59128,-13.40579 15.48283,-26.46757 15.48283,-26.46757z" stroke="none"/><path d="" stroke="none"/><path d="M50.73019,152.69353l-12.75439,-25.50877l37.28877,-18.64439c3.39961,0.44307 7.01732,-0.09044 10.07381,0.18743c3.74927,0.34084 7.83242,0.93214 11.69307,0.32822l8.19475,16.3895z" stroke="none"/><path d="M75.48637,109.29398v-36.05836l48.86598,36.05836z" stroke="#000000"/></g></g></svg>